<svg class="ldi-icmkoe" width="200px"  height="200px"  xmlns="http://www.w3.org/2000/svg" xmlns:xlink="http://www.w3.org/1999/xlink" viewBox="0 0 100 100" preserveAspectRatio="xMidYMid" style="background: none;"><!--?xml version="1.0" encoding="utf-8"?--><!--Generator: Adobe Illustrator 21.0.0, SVG Export Plug-In . SVG Version: 6.00 Build 0)--><svg version="1.1" id="圖層_1" xmlns="http://www.w3.org/2000/svg" xmlns:xlink="http://www.w3.org/1999/xlink" x="0px" y="0px" viewBox="0 0 100 100" style="transform-origin: 50px 50px 0px;" xml:space="preserve"><g style="transform-origin: 50px 50px 0px;"><g style="transform-origin: 50px 50px 0px; transform: scale(0.6);"><g style="transform-origin: 50px 50px 0px;"><g><style type="text/css" class="ld ld-breath" style="transform-origin: 50px 50px 0px; animation-duration: 1s; animation-delay: -1s; animation-direction: normal;">.st0{fill:#333333;} .st1{fill:#FFFFFF;stroke:#333333;stroke-width:3.5;stroke-miterlimit:10;} .st2{fill:#F5E6C8;stroke:#333333;stroke-width:3.5;stroke-linejoin:round;stroke-miterlimit:10;} .st3{fill:#E0E0E0;stroke:#333333;stroke-width:3.5;stroke-miterlimit:10;} .st4{fill:#F5E169;stroke:#333333;stroke-width:3.5;stroke-miterlimit:10;} .st5{opacity:0.2;stroke:#000000;stroke-width:3.5;stroke-linecap:round;stroke-linejoin:round;stroke-miterlimit:10;} .st6{fill:#F5E6C8;stroke:#333333;stroke-width:3.5;stroke-miterlimit:10;} .st7{fill:#F5E6C8;stroke:#FFFFFF;stroke-width:3.5;stroke-linecap:round;stroke-miterlimit:10;} .st8{fill:#F8B26A;stroke:#333333;stroke-width:3.5;stroke-linecap:round;stroke-miterlimit:10;} .st9{fill:none;stroke:#FFFFFF;stroke-width:3.5;stroke-linecap:round;stroke-miterlimit:10;} .st10{fill:none;stroke:#333333;stroke-width:3.5;stroke-linecap:round;stroke-linejoin:round;stroke-miterlimit:10;} .st11{fill:#E15B64;stroke:#333333;stroke-width:3.1815;stroke-miterlimit:10;} .st12{fill:#F47E60;stroke:#333333;stroke-width:3.5;stroke-miterlimit:10;} .st13{fill:none;stroke:#333333;stroke-width:3.5;stroke-linecap:round;stroke-linejoin:round;} .st14{fill:none;stroke:#849B87;stroke-width:3.5;stroke-miterlimit:10;} .st15{fill:none;stroke:#E15B64;stroke-width:3.5;stroke-miterlimit:10;} .st16{fill:none;stroke:#E15B64;stroke-width:3.726;stroke-miterlimit:10;} .st17{fill:#849B87;} .st18{fill:#666666;} .st19{fill:#F47E60;} .st20{fill:#C33737;} .st21{fill:none;stroke:#333333;stroke-width:3.5;stroke-linecap:round;stroke-miterlimit:10;} .st22{fill:#F5E6C8;stroke:#333333;stroke-width:3.1815;stroke-miterlimit:10;} .st23{fill:#E15B64;stroke:#333333;stroke-width:3.1644;stroke-miterlimit:10;} .st24{fill:#77A4BD;} .st25{fill:#FFFFFF;} .st26{fill:#F5E6C8;stroke:#333333;stroke-width:3.3063;stroke-miterlimit:10;} .st27{fill:none;} .st28{fill:none;stroke:#333333;stroke-width:3.0621;stroke-linecap:round;stroke-linejoin:round;} .st29{fill:none;stroke:#333333;stroke-width:3.5;stroke-miterlimit:10;} .st30{fill:#F8B26A;stroke:#333333;stroke-width:3.5;stroke-miterlimit:10;} .st31{fill:#F47E60;stroke:#333333;stroke-width:3.5;stroke-linejoin:round;stroke-miterlimit:10;} .st32{fill:#E15B64;} .st33{opacity:0.2;} .st34{fill:#F5E6C8;stroke:#333333;stroke-width:3.1644;stroke-miterlimit:10;} .st35{fill:#849B87;stroke:#333333;stroke-width:3.5;stroke-miterlimit:10;} .st36{fill:#66503A;stroke:#333333;stroke-width:3.5;stroke-miterlimit:10;} .st37{fill:#F8B26A;} .st38{fill:#FFFFFF;stroke:#E0E0E0;stroke-width:3.5;stroke-linecap:round;stroke-miterlimit:10;} .st39{fill:none;stroke:#E0E0E0;stroke-width:3.5;stroke-linecap:round;stroke-miterlimit:10;} .st40{fill:none;stroke:#333333;stroke-width:3.5;stroke-linecap:round;stroke-linejoin:round;stroke-dasharray:9.0185,9.0185;} .st41{fill:none;stroke:#849B87;stroke-width:3.5;stroke-linecap:round;stroke-linejoin:round;stroke-miterlimit:10;} .st42{fill:#FFFFFF;stroke:#F47E60;stroke-width:3.5;stroke-miterlimit:10;} .st43{fill:none;stroke:#F47E60;stroke-width:3.5;stroke-linecap:round;stroke-miterlimit:10;} .st44{fill:none;stroke:#C33737;stroke-width:3.5;stroke-linecap:round;stroke-linejoin:round;stroke-miterlimit:10;} .st45{fill:#FFFFFF;stroke:#333333;stroke-width:3.5;stroke-linecap:round;stroke-linejoin:round;stroke-miterlimit:10;} .st46{fill:#333333;stroke:#333333;stroke-width:3.5;stroke-linecap:round;stroke-linejoin:round;stroke-miterlimit:10;} .st47{fill:#E0E0E0;} .st48{fill:none;stroke:#C33737;stroke-width:3.5;stroke-linecap:round;stroke-linejoin:round;} .st49{fill:none;stroke:#FFFFFF;stroke-width:3.5;stroke-linecap:round;stroke-linejoin:round;} .st50{fill:none;stroke:#FFFFFF;stroke-width:3.5;stroke-linecap:round;stroke-linejoin:round;stroke-dasharray:8.0279,8.0279;} .st51{fill:none;stroke:#FFFFFF;stroke-width:3.5;stroke-linecap:round;stroke-linejoin:round;stroke-miterlimit:10;} .st52{fill:none;stroke:#FFFFFF;stroke-width:3.5;stroke-miterlimit:10;}</style><g class="ld ld-breath" style="transform-origin: 50px 50px 0px; animation-duration: 1s; animation-delay: -0.961538s; animation-direction: normal;"><path class="st12" d="M67.013,93.136L67.013,93.136c-1.196,0.69-2.719,0.373-3.539-0.738l-8.523-11.544 c-1.535-2.079-0.919-5.032,1.319-6.324l0,0c2.238-1.292,5.103-0.349,6.136,2.02l5.736,13.153 C68.695,90.968,68.209,92.446,67.013,93.136z" fill="rgb(244, 126, 96)" stroke="rgb(51, 51, 51)" style="fill: rgb(244, 126, 96); stroke: rgb(51, 51, 51);"></path></g><g class="ld ld-breath" style="transform-origin: 50px 50px 0px; animation-duration: 1s; animation-delay: -0.923077s; animation-direction: normal;"><path class="st12" d="M31.37,93.136L31.37,93.136c-1.196-0.69-1.682-2.168-1.13-3.434l5.736-13.153 c1.033-2.369,3.898-3.312,6.136-2.02l0,0c2.238,1.292,2.854,4.245,1.319,6.324l-8.523,11.544 C34.088,93.509,32.565,93.827,31.37,93.136z" fill="rgb(244, 126, 96)" stroke="rgb(51, 51, 51)" style="fill: rgb(244, 126, 96); stroke: rgb(51, 51, 51);"></path></g><g class="ld ld-breath" style="transform-origin: 50px 50px 0px; animation-duration: 1s; animation-delay: -0.884615s; animation-direction: normal;"><circle class="st6" cx="49.191" cy="63.463" r="22.354" stroke="rgb(51, 51, 51)" fill="rgb(245, 230, 200)" style="stroke: rgb(51, 51, 51); fill: rgb(245, 230, 200);"></circle></g><g class="ld ld-breath" style="transform-origin: 50px 50px 0px; animation-duration: 1s; animation-delay: -0.846154s; animation-direction: normal;"><circle class="st6" cx="49.191" cy="63.463" r="15.826" stroke="rgb(51, 51, 51)" fill="rgb(245, 230, 200)" style="stroke: rgb(51, 51, 51); fill: rgb(245, 230, 200);"></circle></g><g class="ld ld-breath" style="transform-origin: 50px 50px 0px; animation-duration: 1s; animation-delay: -0.807692s; animation-direction: normal;"><circle class="st0" cx="49.191" cy="63.463" r="3.956" fill="rgb(51, 51, 51)" style="fill: rgb(51, 51, 51);"></circle></g><g class="ld ld-breath" style="transform-origin: 50px 50px 0px; animation-duration: 1s; animation-delay: -0.769231s; animation-direction: normal;"><path class="st30" d="M49.191,41.109c-12.346,0-22.354,10.008-22.354,22.354s10.008,22.354,22.354,22.354 s22.354-10.008,22.354-22.354S61.537,41.109,49.191,41.109z M49.191,79.289c-8.74,0-15.826-7.085-15.826-15.826 c0-8.74,7.085-15.826,15.826-15.826s15.826,7.085,15.826,15.826C65.017,72.203,57.931,79.289,49.191,79.289z" stroke="rgb(51, 51, 51)" fill="rgb(248, 178, 106)" style="stroke: rgb(51, 51, 51); fill: rgb(248, 178, 106);"></path></g><g class="ld ld-breath" style="transform-origin: 50px 50px 0px; animation-duration: 1s; animation-delay: -0.730769s; animation-direction: normal;"><path class="st31" d="M43.431,35.93L22.933,50.283l0,0c-3.375-4.82-2.203-11.462,2.616-14.837l3.046-2.133 C33.414,29.939,40.057,31.11,43.431,35.93L43.431,35.93z" fill="rgb(244, 126, 96)" stroke="rgb(51, 51, 51)" style="fill: rgb(244, 126, 96); stroke: rgb(51, 51, 51);"></path></g><g class="ld ld-breath" style="transform-origin: 50px 50px 0px; animation-duration: 1s; animation-delay: -0.692308s; animation-direction: normal;"><path class="st31" d="M54.951,35.93L75.45,50.283v0c3.375-4.82,2.203-11.462-2.616-14.837l-3.046-2.133 C64.968,29.939,58.326,31.11,54.951,35.93L54.951,35.93z" fill="rgb(244, 126, 96)" stroke="rgb(51, 51, 51)" style="fill: rgb(244, 126, 96); stroke: rgb(51, 51, 51);"></path></g><g class="ld ld-breath" style="transform-origin: 50px 50px 0px; animation-duration: 1s; animation-delay: -0.653846s; animation-direction: normal;"><line class="st21" x1="49.191" y1="63.463" x2="49.191" y2="52.857" stroke="rgb(51, 51, 51)" style="stroke: rgb(51, 51, 51);"></line></g><g class="ld ld-breath" style="transform-origin: 50px 50px 0px; animation-duration: 1s; animation-delay: -0.615385s; animation-direction: normal;"><line class="st21" x1="49.191" y1="63.463" x2="57.5" y2="63.463" stroke="rgb(51, 51, 51)" style="stroke: rgb(51, 51, 51);"></line></g><g style="transform-origin: 50px 50px 0px;"><g><g class="ld ld-breath" style="transform-origin: 50px 50px 0px; animation-duration: 1s; animation-delay: -0.576923s; animation-direction: normal;"><path class="st32" d="M46.121,24.651c1.086-1.919,2.303-3.717,3.585-5.454c0.627-0.882,1.29-1.73,1.957-2.574 c0.667-0.844,1.348-1.676,2.044-2.493l1.195,2.728c-3.801,0.202-7.603,0.2-11.406,0.022l-3.781-0.176l2.612-2.492 c1.452-1.385,2.932-2.745,4.492-4.03c0.766-0.656,1.56-1.285,2.365-1.904c0.808-0.617,1.632-1.218,2.499-1.78 c-0.499,0.904-1.041,1.769-1.599,2.618c-0.56,0.847-1.132,1.684-1.732,2.494c-1.172,1.647-2.424,3.219-3.704,4.765l-1.169-2.668 c3.801-0.216,7.603-0.257,11.405-0.094l3.805,0.164l-2.61,2.564c-0.766,0.752-1.547,1.49-2.343,2.215 c-0.795,0.725-1.594,1.446-2.43,2.133C49.667,22.092,47.959,23.432,46.121,24.651z" fill="rgb(225, 91, 100)" style="fill: rgb(225, 91, 100);"></path></g></g></g><g style="transform-origin: 50px 50px 0px;"><g><g class="ld ld-breath" style="transform-origin: 50px 50px 0px; animation-duration: 1s; animation-delay: -0.538462s; animation-direction: normal;"><path class="st32" d="M27.126,31.386c-0.019-2.205,0.136-4.371,0.378-6.516c0.102-1.077,0.252-2.143,0.408-3.208 c0.155-1.065,0.329-2.125,0.524-3.181l2.399,1.765c-3.191,2.076-6.484,3.974-9.867,5.722l-3.363,1.738l1.016-3.464 c0.565-1.926,1.167-3.843,1.876-5.736c0.335-0.951,0.708-1.893,1.097-2.831c0.391-0.938,0.805-1.871,1.274-2.79 c0.019,1.033-0.017,2.052-0.076,3.067c-0.062,1.014-0.139,2.024-0.253,3.026c-0.192,2.012-0.49,3.999-0.825,5.978l-2.346-1.726 c3.184-2.088,6.456-4.024,9.831-5.784l3.377-1.761l-0.979,3.526c-0.287,1.034-0.595,2.064-0.921,3.089 c-0.326,1.025-0.658,2.049-1.037,3.062C28.917,27.397,28.109,29.412,27.126,31.386z" fill="rgb(225, 91, 100)" style="fill: rgb(225, 91, 100);"></path></g></g></g><g style="transform-origin: 50px 50px 0px;"><g><g class="ld ld-breath" style="transform-origin: 50px 50px 0px; animation-duration: 1s; animation-delay: -0.5s; animation-direction: normal;"><path class="st32" d="M65.938,28.316c1.901-1.119,3.853-2.068,5.832-2.931c0.984-0.45,1.982-0.853,2.982-1.25 c1-0.398,2.005-0.777,3.017-1.136l-0.329,2.96c-3.393-1.725-6.684-3.628-9.889-5.684l-3.186-2.043l3.508-0.852 c1.95-0.474,3.912-0.911,5.905-1.244c0.991-0.185,1.993-0.333,3-0.466c1.008-0.13,2.022-0.239,3.054-0.292 c-0.885,0.533-1.786,1.011-2.694,1.467c-0.909,0.453-1.822,0.892-2.747,1.293c-1.838,0.84-3.708,1.575-5.59,2.275l0.322-2.895 c3.4,1.713,6.713,3.579,9.924,5.622l3.214,2.044L78.718,26.1c-1.039,0.269-2.085,0.517-3.136,0.747 c-1.051,0.23-2.104,0.455-3.171,0.633C70.288,27.872,68.139,28.179,65.938,28.316z" fill="rgb(225, 91, 100)" style="fill: rgb(225, 91, 100);"></path></g></g></g><metadata xmlns:d="https://loading.io/stock/" class="ld ld-breath" style="transform-origin: 50px 50px 0px; animation-duration: 1s; animation-delay: -0.461538s; animation-direction: normal;">
<d:name class="ld ld-breath" style="transform-origin: 50px 50px 0px; animation-duration: 1s; animation-delay: -0.423077s; animation-direction: normal;">alarm</d:name>
<d:tags class="ld ld-breath" style="transform-origin: 50px 50px 0px; animation-duration: 1s; animation-delay: -0.384615s; animation-direction: normal;">alarm,clock,alert,watch,time,wake up,get up,timeup,countdown,temporal</d:tags>
<d:license class="ld ld-breath" style="transform-origin: 50px 50px 0px; animation-duration: 1s; animation-delay: -0.346154s; animation-direction: normal;">cc-by</d:license>
<d:slug class="ld ld-breath" style="transform-origin: 50px 50px 0px; animation-duration: 1s; animation-delay: -0.307692s; animation-direction: normal;">icmkoe</d:slug>
</metadata></g></g></g></g><style type="text/css" class="ld ld-breath" style="transform-origin: 50px 50px 0px; animation-duration: 1s; animation-delay: -0.269231s; animation-direction: normal;">@keyframes ld-breath {
  0% {
    -webkit-transform: scale(0.86);
    transform: scale(0.86);
  }
  50% {
    -webkit-transform: scale(1.06);
    transform: scale(1.06);
  }
  100% {
    -webkit-transform: scale(0.86);
    transform: scale(0.86);
  }
}
@-webkit-keyframes ld-breath {
  0% {
    -webkit-transform: scale(0.86);
    transform: scale(0.86);
  }
  50% {
    -webkit-transform: scale(1.06);
    transform: scale(1.06);
  }
  100% {
    -webkit-transform: scale(0.86);
    transform: scale(0.86);
  }
}
.ld.ld-breath {
  -webkit-animation: ld-breath 1s infinite;
  animation: ld-breath 1s infinite;
}
</style></svg></svg>